<?xml version="1.0" encoding="UTF-8"?>
<svg id="Ebene_1" data-name="Ebene 1" xmlns="http://www.w3.org/2000/svg" viewBox="0 0 801.5 801.5">
  <defs>
    <style>
      .cls-1 {
        fill: #fff;
      }

      .cls-2 {
        fill: none;
      }

      .cls-3 {
        fill: #b3b3b3;
      }
    </style>
  </defs>
  <rect class="cls-2" width="801.5" height="801.5"/>
  <rect class="cls-1" x="376.32" y="154.43" width="43" height="489.65" rx="19.5" ry="19.5" transform="translate(160.54 -111.99) rotate(20)"/>
  <g>
    <path class="cls-3" d="M58.25,344.39l4.59-4.56c-1.59,1.46-3.11,2.98-4.59,4.56Z"/>
    <path class="cls-3" d="M62.84,460.05l-4.59-4.56c1.47,1.58,3,3.11,4.59,4.56Z"/>
  </g>
  <path class="cls-1" d="M149.84,476.12c-16.59-16.51-33.19-33.01-49.78-49.52v-.3c-7.35-6.42-11.99-15.84-11.99-26.36s4.24-19.09,11.01-25.47v-.21c16.92-16.83,33.84-33.67,50.77-50.5l113.7-113.09c9.37-9.32,9.37-24.43,0-33.74h0c-9.37-9.32-24.56-9.32-33.92,0L65.84,339.83l-4.59,4.56c-13.57,14.56-21.89,34.08-21.89,55.55h0c0,21.47,8.32,40.99,21.89,55.55l4.59,4.56,163.77,162.9c9.37,9.32,24.56,9.32,33.92,0h0c9.37-9.32,9.37-24.43,0-33.74l-113.7-113.09Z"/>
  <path class="cls-1" d="M649.16,476.12c16.51-16.51,33.02-33.01,49.52-49.52v-.3c7.31-6.42,11.93-15.84,11.93-26.36s-4.21-19.09-10.95-25.47v-.21c-16.83-16.83-33.67-33.67-50.5-50.5l-113.11-113.09c-9.32-9.32-9.32-24.43,0-33.74h0c9.32-9.32,24.43-9.32,33.75,0l162.92,162.9,4.56,4.56c13.5,14.56,21.78,34.08,21.78,55.55h0c0,21.47-8.27,40.99-21.77,55.55l-4.56,4.56-162.92,162.9c-9.32,9.32-24.43,9.32-33.75,0h0c-9.32-9.32-9.32-24.43,0-33.74l113.11-113.09Z"/>
</svg>